<?xml version="1.0" encoding="utf-8"?>
<!-- Generated by IcoMoon.io -->
<!DOCTYPE svg PUBLIC "-//W3C//DTD SVG 1.1//EN" "http://www.w3.org/Graphics/SVG/1.1/DTD/svg11.dtd">
<svg version="1.1" xmlns="http://www.w3.org/2000/svg" xmlns:xlink="http://www.w3.org/1999/xlink" width="560" height="20" viewBox="0 0 560 20">
<svg id="icon-google-plus" width="20" height="20" viewBox="0 0 20 20" x="0" y="0">
<path fill="#fff" d="M6.363 8.934v2.184h3.609c-0.145 0.938-1.090 2.746-3.609 2.746-2.172 0-3.945-1.801-3.945-4.020s1.773-4.020 3.945-4.020c1.238 0 2.063 0.527 2.535 0.98l1.727-1.664c-1.109-1.035-2.547-1.664-4.262-1.664-3.52 0.004-6.363 2.848-6.363 6.367s2.844 6.363 6.363 6.363c3.672 0 6.109-2.582 6.109-6.219 0-0.418-0.047-0.738-0.102-1.055h-6.008z"></path>
<path fill="#fff" d="M20 8.75h-1.875v-1.875h-1.875v1.875h-1.875v1.875h1.875v1.875h1.875v-1.875h1.875z"></path>
</svg>
<svg id="icon-facebook" width="20" height="20" viewBox="0 0 20 20" x="36" y="0">
<path fill="#fff" d="M11.875 3.75h3.125v-3.75h-3.125c-2.412 0-4.375 1.963-4.375 4.375v1.875h-2.5v3.75h2.5v10h3.75v-10h3.125l0.625-3.75h-3.75v-1.875c0-0.339 0.286-0.625 0.625-0.625z"></path>
</svg>
<svg id="icon-instagram" width="20" height="20" viewBox="0 0 20 20" x="72" y="0">
<path fill="#fff" d="M10 1.801c2.672 0 2.988 0.012 4.039 0.059 0.977 0.043 1.504 0.207 1.855 0.344 0.465 0.18 0.801 0.398 1.148 0.746 0.352 0.352 0.566 0.684 0.75 1.148 0.137 0.352 0.301 0.883 0.344 1.855 0.047 1.055 0.059 1.371 0.059 4.039s-0.012 2.988-0.059 4.039c-0.043 0.977-0.207 1.504-0.344 1.855-0.18 0.465-0.398 0.801-0.746 1.148-0.352 0.352-0.684 0.566-1.148 0.75-0.352 0.137-0.883 0.301-1.855 0.344-1.055 0.047-1.371 0.059-4.039 0.059s-2.988-0.012-4.039-0.059c-0.977-0.043-1.504-0.207-1.855-0.344-0.465-0.18-0.801-0.398-1.148-0.746-0.352-0.352-0.566-0.684-0.75-1.148-0.137-0.352-0.301-0.883-0.344-1.855-0.047-1.055-0.059-1.371-0.059-4.039s0.012-2.988 0.059-4.039c0.043-0.977 0.207-1.504 0.344-1.855 0.18-0.465 0.398-0.801 0.746-1.148 0.352-0.352 0.684-0.566 1.148-0.75 0.352-0.137 0.883-0.301 1.855-0.344 1.051-0.047 1.367-0.059 4.039-0.059zM10 0c-2.715 0-3.055 0.012-4.121 0.059-1.063 0.047-1.793 0.219-2.426 0.465-0.66 0.258-1.219 0.598-1.773 1.156-0.559 0.555-0.898 1.113-1.156 1.77-0.246 0.637-0.418 1.363-0.465 2.426-0.047 1.070-0.059 1.41-0.059 4.125s0.012 3.055 0.059 4.121c0.047 1.063 0.219 1.793 0.465 2.426 0.258 0.66 0.598 1.219 1.156 1.773 0.555 0.555 1.113 0.898 1.77 1.152 0.637 0.246 1.363 0.418 2.426 0.465 1.066 0.047 1.406 0.059 4.121 0.059s3.055-0.012 4.121-0.059c1.062-0.047 1.793-0.219 2.426-0.465 0.656-0.254 1.215-0.598 1.77-1.152s0.898-1.113 1.152-1.77c0.246-0.637 0.418-1.363 0.465-2.426 0.047-1.066 0.059-1.406 0.059-4.121s-0.012-3.055-0.059-4.121c-0.047-1.063-0.219-1.793-0.465-2.426-0.246-0.664-0.586-1.223-1.145-1.777-0.555-0.555-1.113-0.898-1.77-1.152-0.637-0.246-1.363-0.418-2.426-0.465-1.070-0.051-1.41-0.063-4.125-0.063v0z"></path>
<path fill="#fff" d="M10 4.863c-2.836 0-5.137 2.301-5.137 5.137s2.301 5.137 5.137 5.137 5.137-2.301 5.137-5.137c0-2.836-2.301-5.137-5.137-5.137zM10 13.332c-1.84 0-3.332-1.492-3.332-3.332s1.492-3.332 3.332-3.332c1.84 0 3.332 1.492 3.332 3.332s-1.492 3.332-3.332 3.332z"></path>
<path fill="#fff" d="M16.539 4.66c0 0.662-0.537 1.199-1.199 1.199s-1.199-0.537-1.199-1.199c0-0.662 0.537-1.199 1.199-1.199s1.199 0.537 1.199 1.199z"></path>
</svg>
<svg id="icon-spotify" width="20" height="20" viewBox="0 0 20 20" x="108" y="0">
<path fill="#fff" d="M10 0c-5.5 0-10 4.5-10 10s4.5 10 10 10 10-4.5 10-10-4.449-10-10-10zM14.602 14.449c-0.199 0.301-0.551 0.398-0.852 0.199-2.352-1.449-5.301-1.75-8.801-0.949-0.352 0.102-0.648-0.148-0.75-0.449-0.102-0.352 0.148-0.648 0.449-0.75 3.801-0.852 7.102-0.5 9.699 1.102 0.352 0.148 0.402 0.547 0.254 0.848zM15.801 11.699c-0.25 0.352-0.699 0.5-1.051 0.25-2.699-1.648-6.801-2.148-9.949-1.148-0.398 0.102-0.852-0.102-0.949-0.5-0.102-0.398 0.102-0.852 0.5-0.949 3.648-1.102 8.148-0.551 11.25 1.352 0.297 0.148 0.449 0.648 0.199 0.996zM15.898 8.898c-3.199-1.898-8.551-2.102-11.602-1.148-0.5 0.148-1-0.148-1.148-0.602-0.148-0.5 0.148-1 0.602-1.148 3.551-1.051 9.398-0.852 13.102 1.352 0.449 0.25 0.602 0.852 0.352 1.301-0.254 0.348-0.852 0.496-1.305 0.246z"></path>
</svg>
<svg id="icon-twitter" width="20" height="20" viewBox="0 0 20 20" x="144" y="0">
<path fill="#fff" d="M20 4.422c-0.734 0.328-1.527 0.547-2.355 0.645 0.848-0.508 1.496-1.313 1.805-2.27-0.793 0.469-1.672 0.812-2.605 0.996-0.75-0.797-1.816-1.293-2.996-1.293-2.266 0-4.102 1.836-4.102 4.102 0 0.32 0.035 0.633 0.105 0.934-3.41-0.172-6.434-1.805-8.457-4.289-0.352 0.605-0.555 1.313-0.555 2.062 0 1.422 0.723 2.68 1.824 3.414-0.672-0.020-1.305-0.207-1.859-0.512 0 0.016 0 0.035 0 0.051 0 1.988 1.414 3.648 3.293 4.023-0.344 0.094-0.707 0.145-1.082 0.145-0.266 0-0.52-0.027-0.773-0.074 0.523 1.629 2.039 2.816 3.832 2.852-1.406 1.102-3.172 1.758-5.098 1.758-0.332 0-0.656-0.020-0.98-0.059 1.82 1.168 3.977 1.844 6.293 1.844 7.547 0 11.676-6.254 11.676-11.676 0-0.18-0.004-0.355-0.012-0.531 0.801-0.574 1.496-1.297 2.047-2.121z"></path>
</svg>
<svg id="icon-youtube" width="20" height="20" viewBox="0 0 20 20" x="180" y="0">
<path fill="#fff" d="M19.801 6c0 0-0.195-1.379-0.797-1.984-0.762-0.797-1.613-0.801-2.004-0.848-2.797-0.203-6.996-0.203-6.996-0.203h-0.008c0 0-4.199 0-6.996 0.203-0.391 0.047-1.242 0.051-2.004 0.848-0.602 0.605-0.793 1.984-0.793 1.984s-0.199 1.617-0.199 3.238v1.516c0 1.617 0.199 3.238 0.199 3.238s0.195 1.379 0.793 1.984c0.762 0.797 1.762 0.77 2.207 0.855 1.602 0.152 6.801 0.199 6.801 0.199s4.203-0.008 7-0.207c0.391-0.047 1.242-0.051 2.004-0.848 0.602-0.605 0.797-1.984 0.797-1.984s0.199-1.617 0.199-3.238v-1.516c-0.004-1.617-0.203-3.238-0.203-3.238zM7.934 12.594v-5.621l5.402 2.82-5.402 2.801z"></path>
</svg>
<svg id="icon-github" width="20" height="20" viewBox="0 0 20 20" x="216" y="0">
<path fill="#fff" d="M10 0.247c-5.522 0-10 4.477-10 10 0 4.418 2.865 8.167 6.839 9.489 0.5 0.093 0.683-0.217 0.683-0.481 0-0.238-0.009-1.026-0.014-1.862-2.782 0.605-3.369-1.18-3.369-1.18-0.455-1.156-1.11-1.463-1.11-1.463-0.907-0.621 0.069-0.608 0.069-0.608 1.004 0.071 1.533 1.031 1.533 1.031 0.892 1.529 2.339 1.087 2.91 0.831 0.090-0.646 0.349-1.087 0.635-1.337-2.221-0.253-4.556-1.11-4.556-4.942 0-1.092 0.391-1.984 1.030-2.684-0.104-0.252-0.446-1.269 0.097-2.646 0 0 0.84-0.269 2.751 1.025 0.798-0.222 1.653-0.333 2.503-0.337 0.85 0.004 1.706 0.115 2.505 0.337 1.909-1.294 2.747-1.025 2.747-1.025 0.544 1.378 0.202 2.395 0.098 2.646 0.641 0.7 1.029 1.592 1.029 2.684 0 3.841-2.339 4.687-4.566 4.934 0.359 0.31 0.678 0.919 0.678 1.852 0 1.338-0.012 2.415-0.012 2.744 0 0.266 0.18 0.578 0.687 0.48 3.971-1.324 6.833-5.071 6.833-9.488 0-5.523-4.477-10-10-10z"></path>
</svg>
<svg id="icon-skype" width="20" height="20" viewBox="0 0 20 20" x="252" y="0">
<path fill="#fff" d="M8.313 0.73c-0.031-0.020-0.066-0.035-0.098-0.051-0.035 0.008-0.066 0.012-0.102 0.020l0.199 0.031z"></path>
<path fill="#fff" d="M0.719 8.223c-0.008 0.035-0.012 0.070-0.016 0.102 0.020 0.031 0.031 0.063 0.051 0.094l-0.035-0.195z"></path>
<path fill="#fff" d="M19.273 11.77c0.008-0.035 0.012-0.070 0.020-0.105-0.020-0.031-0.031-0.063-0.051-0.094l0.031 0.199z"></path>
<path fill="#fff" d="M11.563 19.199c0.031 0.020 0.066 0.035 0.098 0.051 0.035-0.008 0.070-0.012 0.105-0.016l-0.203-0.035z"></path>
<path fill="#fff" d="M19.293 11.664c-0.008 0.035-0.012 0.070-0.020 0.105l-0.035-0.203c0.020 0.035 0.035 0.066 0.055 0.098 0.102-0.562 0.156-1.137 0.156-1.711 0-1.273-0.25-2.512-0.742-3.676-0.477-1.125-1.156-2.137-2.023-3.004s-1.879-1.547-3-2.023c-1.164-0.492-2.402-0.742-3.676-0.742-0.602 0-1.203 0.055-1.789 0.168 0 0-0.004 0-0.004 0 0.031 0.016 0.066 0.031 0.098 0.051l-0.199-0.031c0.035-0.008 0.066-0.012 0.102-0.020-0.805-0.426-1.707-0.656-2.621-0.656-1.492 0-2.898 0.582-3.953 1.637s-1.637 2.461-1.637 3.953c0 0.949 0.246 1.887 0.703 2.711 0.008-0.035 0.012-0.070 0.016-0.102l0.035 0.199c-0.020-0.031-0.035-0.063-0.051-0.094-0.094 0.535-0.141 1.082-0.141 1.629 0 1.273 0.25 2.512 0.742 3.676 0.477 1.125 1.156 2.133 2.023 3s1.879 1.547 3.004 2.023c1.164 0.492 2.402 0.742 3.676 0.742 0.555 0 1.109-0.051 1.652-0.148-0.031-0.020-0.063-0.035-0.098-0.051l0.203 0.035c-0.035 0.008-0.070 0.012-0.105 0.016 0.836 0.473 1.785 0.727 2.75 0.727 1.492 0 2.898-0.582 3.953-1.637s1.637-2.461 1.637-3.953c-0.004-0.949-0.25-1.887-0.711-2.719zM10.043 15.738c-3.355 0-4.855-1.648-4.855-2.887 0-0.633 0.469-1.078 1.113-1.078 1.438 0 1.063 2.063 3.742 2.063 1.371 0 2.129-0.746 2.129-1.508 0-0.457-0.227-0.965-1.129-1.187l-2.984-0.746c-2.402-0.602-2.84-1.902-2.84-3.125 0-2.535 2.387-3.488 4.629-3.488 2.066 0 4.5 1.141 4.5 2.664 0 0.652-0.566 1.031-1.211 1.031-1.227 0-1-1.695-3.469-1.695-1.227 0-1.902 0.555-1.902 1.348s0.969 1.047 1.809 1.238l2.211 0.492c2.418 0.539 3.031 1.953 3.031 3.281 0 2.059-1.582 3.598-4.773 3.598z"></path>
</svg>
<svg id="icon-linkedin2" width="20" height="20" viewBox="0 0 20 20" x="288" y="0">
<path fill="#fff" d="M7.5 7.5h3.459v1.773h0.049c0.481-0.863 1.659-1.773 3.415-1.773 3.651 0 4.327 2.273 4.327 5.229v6.021h-3.606v-5.337c0-1.273-0.026-2.911-1.876-2.911-1.878 0-2.164 1.386-2.164 2.818v5.43h-3.604v-11.25z"></path>
<path fill="#fff" d="M1.25 7.5h3.75v11.25h-3.75v-11.25z"></path>
<path fill="#fff" d="M5 4.375c0 1.036-0.839 1.875-1.875 1.875s-1.875-0.839-1.875-1.875c0-1.036 0.839-1.875 1.875-1.875s1.875 0.839 1.875 1.875z"></path>
</svg>
</svg>
